<?xml version="1.0" standalone="no"?>
<!DOCTYPE svg PUBLIC "-//W3C//DTD SVG 20010904//EN"
 "http://www.w3.org/TR/2001/REC-SVG-20010904/DTD/svg10.dtd">
<svg version="1.0" xmlns="http://www.w3.org/2000/svg"
 width="260.000000pt" height="260.000000pt" viewBox="0 0 260.000000 260.000000"
 preserveAspectRatio="xMidYMid meet">
<metadata>
Created by potrace 1.11, written by Peter Selinger 2001-2013
</metadata>
<g transform="translate(0.000000,260.000000) scale(0.100000,-0.100000)"
fill="#000000" stroke="none">
<path d="M1046 2537 c-51 -12 -121 -84 -152 -154 -14 -32 -30 -53 -40 -53 -8
0 -34 18 -57 41 -49 48 -78 62 -130 60 -49 -1 -92 -31 -117 -82 -25 -48 -27
-92 -7 -179 3 -12 -15 -50 -24 -50 -5 0 -31 10 -57 23 -26 13 -56 21 -67 19
-111 -25 -132 -178 -44 -322 15 -25 29 -52 30 -60 5 -28 -12 -58 -40 -70 -16
-6 -38 -22 -50 -34 -24 -26 -53 -113 -40 -122 5 -3 9 -13 9 -22 0 -99 88 -188
202 -207 43 -7 52 -26 40 -81 -19 -85 11 -166 80 -211 42 -28 76 -32 226 -23
24 1 49 -3 55 -9 12 -12 12 -25 5 -279 -4 -123 -2 -157 9 -168 18 -18 228 -20
239 -2 7 12 7 305 0 317 -3 4 -1 13 3 20 5 7 5 28 1 47 -4 18 -5 35 -3 38 3 3
22 -6 43 -20 45 -30 83 -33 132 -10 42 20 49 33 53 100 7 104 24 117 98 73
l38 -23 -19 -25 c-42 -53 -74 -214 -50 -251 6 -10 8 -10 8 2 1 13 2 13 13 0 7
-8 21 -22 31 -30 18 -14 19 -14 7 8 -14 25 -5 28 24 6 20 -15 20 -15 1 -30
-11 -8 -23 -14 -28 -14 -4 0 -8 -9 -8 -21 0 -29 -58 -79 -92 -79 -16 0 -36 -8
-46 -18 -10 -10 -33 -24 -51 -32 -18 -7 -60 -39 -92 -70 -61 -59 -78 -99 -74
-172 2 -24 -2 -28 -24 -28 -14 0 -57 21 -95 45 -38 25 -75 45 -81 45 -7 0 -20
11 -29 24 -51 79 -117 102 -137 49 -15 -40 4 -95 47 -138 37 -38 73 -45 98
-20 20 20 52 7 105 -41 48 -43 116 -132 107 -141 -3 -3 2 -18 11 -33 27 -47
98 -59 186 -34 11 4 17 0 17 -10 0 -9 5 -16 11 -16 5 0 8 4 5 9 -3 5 1 14 9
21 8 7 15 17 15 22 0 5 6 16 14 24 13 12 16 12 23 -1 5 -8 19 -16 31 -17 20
-3 26 5 44 57 25 72 53 117 102 168 35 35 78 49 90 29 3 -5 0 -40 -6 -78 -11
-72 -33 -126 -75 -182 -27 -36 -23 -52 12 -52 13 0 25 -6 28 -12 6 -16 36 22
57 72 8 20 28 49 43 66 15 16 30 40 33 54 10 43 32 95 41 94 4 -1 22 -5 40 -8
l31 -7 -3 53 c-2 29 -6 94 -9 143 -4 50 -8 100 -10 112 -3 13 -1 23 3 23 4 0
35 -19 68 -43 34 -24 80 -52 102 -62 45 -20 50 -29 22 -44 -24 -13 -54 -78
-54 -116 0 -40 29 -100 62 -128 14 -12 38 -38 52 -57 81 -107 114 -127 176
-101 34 14 45 38 49 111 9 151 18 205 35 195 5 -4 9 -1 9 4 0 6 -4 12 -10 12
-19 3 -25 5 -57 22 -18 9 -45 17 -61 17 -76 0 -203 -64 -221 -112 -10 -27 -21
-10 -23 34 -1 37 20 84 51 112 18 16 25 17 46 8 26 -12 33 -4 14 15 -9 9 -5
14 15 19 14 3 26 10 26 15 0 13 -41 27 -64 23 -25 -5 -98 74 -92 99 5 20 -24
44 -131 107 -40 23 -73 46 -73 49 0 4 11 14 25 21 25 13 29 27 25 85 -2 28
-34 82 -92 156 -27 33 -31 59 -15 85 10 16 -17 98 -42 130 -11 15 -21 34 -21
44 0 20 42 41 60 30 13 -8 31 -5 87 12 51 15 89 117 70 188 -16 62 -73 106
-146 112 -54 4 -60 33 -22 109 39 81 51 168 27 204 -17 26 -54 46 -91 50 -34
3 -63 15 -68 29 -3 7 4 37 14 66 10 30 19 70 19 90 0 51 -42 107 -97 131 -57
24 -80 24 -123 -3 -69 -43 -119 -26 -135 44 -4 15 -24 44 -45 66 -46 45 -104
63 -164 49z m447 -1944 c-14 -38 -31 -88 -38 -112 -13 -40 -12 -44 6 -48 23
-6 25 -26 4 -43 -14 -11 -32 -65 -49 -142 -8 -36 -24 -36 -20 -1 2 16 6 51 9
78 3 28 8 68 12 90 4 22 6 51 5 65 -9 136 -10 133 33 157 62 33 65 30 38 -44z
m-120 -7 c14 5 17 0 17 -25 0 -29 -2 -30 -26 -21 -14 6 -46 10 -72 10 -41 1
-45 2 -27 13 33 20 80 33 86 25 3 -5 13 -6 22 -2z"/>
<path d="M2155 560 c-3 -5 1 -10 10 -10 9 0 13 5 10 10 -3 6 -8 10 -10 10 -2
0 -7 -4 -10 -10z"/>
<path d="M2195 559 c-4 -5 2 -9 12 -9 28 0 83 -38 101 -70 9 -16 21 -30 26
-30 9 0 -18 44 -43 71 -22 23 -89 50 -96 38z"/>
</g>
</svg>
